<svg width="100" height="100" xmlns="http://www.w3.org/2000/svg">
 <!-- Created with UXWing SVG Editor - https://uxwing.com/svg-icon-editor/ -->

 <g>
  <title>background</title>
  <rect fill="#fff" id="canvas_background" height="102" width="102" y="-1" x="-1"/>
  <g display="none" overflow="visible" y="0" x="0" height="100%" width="100%" id="canvasGrid">
   <rect fill="url(#gridpattern)" stroke-width="0" y="0" x="0" height="100%" width="100%"/>
  </g>
 </g>
 <g>
  <title>Layer 1</title>
  <style transform="matrix(1.177389870359903,0,0,1.177389870359903,0,0) " type="text/css">.st0{fill-rule:evenodd;clip-rule:evenodd;}</style>
  <g stroke="null" id="svg_7">
   <g stroke="null" transform="matrix(0.8071104428930018,0,0,0.8584816376208158,15.974585915073275,14.043017891635756) " id="svg_5">
    <path fill="#129d90" stroke="#fff" id="svg_6" d="m39.420148,23.140552l4.83,0c0.9,0 1.64,0.74 1.64,1.64l0,7.2l7.2,0c0.9,0 1.64,0.74 1.64,1.64l0,4.83c0,0.9 -0.74,1.64 -1.64,1.64l-7.2,0l0,7.2c0,0.9 -0.74,1.64 -1.64,1.64l-4.83,0c-0.9,0 -1.64,-0.74 -1.64,-1.64l0,-7.2l-7.2,0c-0.9,0 -1.64,-0.74 -1.64,-1.64l0,-4.83c0,-0.9 0.74,-1.64 1.64,-1.64l7.2,0l0,-7.2c0,-0.9 0.74,-1.64 1.64,-1.64l0,0zm51.78,69.4l0,4.48c0,1.16 -0.94,2.09 -2.09,2.09l-95.1,0c-1.16,0 -2.09,-0.94 -2.09,-2.09l0,-53.45c-2.34,0.9 -4.53,0.92 -6.35,0.3c-1.42,-0.48 -2.62,-1.34 -3.5,-2.45c-0.88,-1.11 -1.44,-2.46 -1.61,-3.95c-0.26,-2.31 0.43,-4.92 2.4,-7.37l0,0c0.1,-0.12 0.21,-0.24 0.34,-0.34l57.05,-44.55c0.74,-0.68 1.88,-0.75 2.7,-0.11l57.19,44.46l0,0c0.09,0.07 0.17,0.14 0.25,0.23c2.65,2.85 3.31,6.01 2.67,8.69c-0.32,1.32 -0.95,2.5 -1.82,3.48c-0.87,0.98 -1.98,1.74 -3.24,2.19c-2,0.72 -4.38,0.7 -6.79,-0.44l-0.01,48.83l0,0l0,0zm-105.23,-59.65c-1.11,1.45 -1.5,2.9 -1.37,4.12c0.08,0.7 0.33,1.32 0.72,1.82c0.39,0.49 0.92,0.86 1.56,1.08c1.09,0.37 2.5,0.27 4.11,-0.49l49.79,-37.88c0.77,-0.59 1.82,-0.56 2.55,0.01l0,0l48.37,37.6c0.02,0.02 0.04,0.04 0.07,0.05c1.77,1.28 3.47,1.48 4.79,1.01c0.61,-0.22 1.14,-0.58 1.55,-1.05c0.42,-0.47 0.72,-1.03 0.87,-1.66c0.33,-1.38 -0.07,-3.08 -1.55,-4.74l-55.76,-43.36l-55.7,43.49l0,0l0,0zm24.03,27.26l26.7,0c1.04,0 1.89,0.83 1.89,1.85l0,20.89c0,1.02 -0.85,1.85 -1.89,1.85l-26.7,0c-1.04,0 -1.89,-0.83 -1.89,-1.85l0,-20.89c0.01,-1.02 0.85,-1.85 1.89,-1.85l0,0zm38.13,-1.85l25.07,0c1.12,0 2.03,0.94 2.03,2.1l0,34.52l11.78,0l0,-53.69c0,-0.14 0.01,-0.27 0.04,-0.4l-45.01,-34.99l-46.01,35.01c0.05,0.17 0.07,0.35 0.07,0.54l0,53.53l50,0l0,-34.52c0,-1.16 0.91,-2.1 2.03,-2.1l0,0l0,0zm23.04,4.2l-21,0l0,32.38l21,0l0,-32.38l0,0l0,0zm-36.36,11.79l-9.91,0l0,6.75l9.91,0l0,-6.75l0,0zm-13.61,0l-9.31,0l0,6.75l9.31,0l0,-6.75l0,0zm-9.31,-3.7l9.31,0l0,-6.74l-9.31,0l0,6.74l0,0zm13.01,0l9.91,0l0,-6.74l-9.91,0l0,6.74l0,0z" class="st0"/>
   </g>
  </g>
 </g>
</svg>