<?xml version="1.0" encoding="utf-8"?><svg version="1.1" id="Layer_1" xmlns="http://www.w3.org/2000/svg" xmlns:xlink="http://www.w3.org/1999/xlink" x="0px" y="0px" viewBox="0 0 122.88 122.88" style="enable-background:new 0 0 122.88 122.88" xml:space="preserve"><g><path d="M61.44,122.88c-8.46,0-16.33-1.51-23.59-4.52c-7.27-3.01-13.89-7.51-19.86-13.47C12.02,98.92,7.53,92.3,4.52,85.03 C1.51,77.77,0,69.9,0,61.44c0-8.46,1.51-16.33,4.52-23.59c3.01-7.27,7.51-13.89,13.47-19.86S30.57,7.53,37.85,4.52 C45.11,1.51,52.98,0,61.44,0c8.46,0,16.33,1.51,23.59,4.52c7.27,3.01,13.89,7.5,19.86,13.47c5.97,5.97,10.46,12.59,13.47,19.86 c3.01,7.26,4.52,15.13,4.52,23.59c0,8.43-1.51,16.28-4.51,23.54c-3.01,7.26-7.5,13.88-13.48,19.87c-5.99,6-12.6,10.5-19.85,13.51 C77.78,121.37,69.91,122.88,61.44,122.88L61.44,122.88z M61.37,17.11l6.16,10.67h-3.52v31.15h3.08h11.28V55.4l10.67,6.16 l-10.67,6.16V64.2h-1.74H65.96h-7.22v-5.2h-0.02V27.77h-3.52L61.37,17.11L61.37,17.11z M37.33,23.46c1.02-1.77,3.29-2.38,5.07-1.36 c1.77,1.02,2.38,3.29,1.36,5.07c-1.02,1.77-3.29,2.38-5.07,1.36C36.91,27.5,36.3,25.24,37.33,23.46L37.33,23.46z M21.54,40.61 c0-2.05,1.66-3.71,3.71-3.71c2.05,0,3.71,1.66,3.71,3.71c0,2.05-1.66,3.71-3.71,3.71C23.2,44.32,21.54,42.66,21.54,40.61 L21.54,40.61z M16.44,63.36c-1.02-1.77-0.42-4.04,1.36-5.07c1.77-1.02,4.04-0.42,5.07,1.36c1.02,1.77,0.42,4.04-1.36,5.07 C19.73,65.75,17.46,65.14,16.44,63.36L16.44,63.36z M23.4,85.62c-1.77-1.02-2.38-3.29-1.36-5.07c1.02-1.77,3.29-2.38,5.07-1.36 c1.77,1.02,2.38,3.29,1.36,5.07C27.44,86.03,25.17,86.64,23.4,85.62L23.4,85.62z M40.55,101.41c-2.05,0-3.71-1.66-3.71-3.71 c0-2.05,1.66-3.71,3.71-3.71s3.71,1.66,3.71,3.71C44.26,99.75,42.6,101.41,40.55,101.41L40.55,101.41z M63.3,106.51 c-1.77,1.02-4.04,0.42-5.07-1.36c-1.02-1.77-0.42-4.04,1.36-5.07c1.77-1.02,4.04-0.42,5.07,1.36 C65.68,103.21,65.08,105.48,63.3,106.51L63.3,106.51z M85.55,99.54c-1.02,1.77-3.29,2.38-5.07,1.36c-1.77-1.02-2.38-3.29-1.36-5.07 c1.02-1.77,3.29-2.38,5.07-1.36C85.97,95.5,86.58,97.77,85.55,99.54L85.55,99.54z M101.34,82.39c0,2.05-1.66,3.71-3.71,3.71 c-2.05,0-3.71-1.66-3.71-3.71s1.66-3.71,3.71-3.71C99.68,78.68,101.34,80.34,101.34,82.39L101.34,82.39z M106.44,59.64 c1.02,1.77,0.42,4.04-1.36,5.07c-1.77,1.02-4.04,0.42-5.07-1.36c-1.02-1.77-0.42-4.04,1.36-5.07 C103.15,57.26,105.42,57.87,106.44,59.64L106.44,59.64z M99.48,37.39c1.77,1.02,2.38,3.29,1.36,5.07 c-1.02,1.77-3.29,2.38-5.07,1.36c-1.77-1.02-2.38-3.29-1.36-5.07C95.44,36.97,97.71,36.36,99.48,37.39L99.48,37.39z M82.33,21.6 c2.05,0,3.71,1.66,3.71,3.71s-1.66,3.71-3.71,3.71s-3.71-1.66-3.71-3.71S80.28,21.6,82.33,21.6L82.33,21.6z M40.15,112.77 c6.5,2.69,13.6,4.04,21.29,4.04c7.68,0,14.78-1.35,21.28-4.04c6.52-2.7,12.48-6.76,17.88-12.18c5.42-5.43,9.48-11.4,12.17-17.91 c2.69-6.5,4.04-13.58,4.04-21.24c0-7.69-1.35-14.79-4.04-21.29c-2.69-6.49-6.75-12.45-12.17-17.87 c-5.42-5.42-11.38-9.48-17.87-12.17c-6.5-2.69-13.6-4.04-21.29-4.04c-7.69,0-14.79,1.35-21.29,4.04 c-6.49,2.69-12.45,6.75-17.87,12.17c-5.42,5.42-9.48,11.38-12.17,17.87c-2.69,6.5-4.04,13.6-4.04,21.29 c0,7.69,1.35,14.79,4.04,21.29c2.69,6.49,6.75,12.45,12.17,17.87C27.7,106.02,33.66,110.08,40.15,112.77L40.15,112.77z"/></g></svg>